<?xml version="1.0" standalone="no"?>
<!DOCTYPE svg PUBLIC "-//W3C//DTD SVG 20010904//EN"
 "http://www.w3.org/TR/2001/REC-SVG-20010904/DTD/svg10.dtd">
<svg version="1.0" xmlns="http://www.w3.org/2000/svg"
 width="512.000000pt" height="512.000000pt" viewBox="0 0 512.000000 512.000000"
 preserveAspectRatio="xMidYMid meet">

<g transform="translate(0.000000,512.000000) scale(0.100000,-0.100000)"
fill="#000000" stroke="none">
<path d="M2305 4978 c-455 -46 -946 -255 -1305 -556 -706 -592 -1017 -1531
-804 -2427 86 -360 261 -707 502 -995 385 -460 938 -764 1547 -852 118 -17
512 -17 630 0 628 90 1200 414 1585 897 223 281 397 646 474 995 42 193 51
282 51 520 0 131 -6 263 -13 315 -131 913 -747 1675 -1596 1974 -342 121 -713
165 -1071 129z m494 -817 c167 -42 324 -133 452 -260 477 -478 339 -1278 -272
-1571 -560 -268 -1219 48 -1371 657 -30 122 -30 342 0 455 103 378 380 647
753 727 122 27 312 23 438 -8z m561 -2156 c227 -34 405 -129 572 -304 120
-124 189 -256 254 -484 l28 -98 -100 -100 c-326 -328 -727 -538 -1184 -620
-148 -27 -435 -36 -591 -20 -506 53 -972 277 -1333 640 l-100 100 28 98 c66
231 135 360 259 490 161 168 344 265 562 299 125 19 1477 19 1605 -1z"/>
</g>
</svg>
